       <svg
              fill="none"
              height="120"
              viewBox="-13 -28 83 140"
              width="120"
              xmlns="http://www.w3.org/2000/svg"
              class="ChainLogo_logo__hCA83 undefined ignore-global-styles"
              style="background: rgb(0, 77, 229)"
            >
              <path
                fill-rule="evenodd"
                clip-rule="evenodd"
                d="M55.2857 0C59.5447 0 63 3.60285 63 7.94264V33.572C62.9196 38.7306 57.847 42.9044 52.7845 42.9863C57.847 43.0682 62.9196 47.2464 63 52.4051V68.536C63 70.8287 62.0357 72.9577 60.4286 74.4316L40.9821 91.7089V56.1717C40.9821 51.8319 37.5268 48.3109 33.2679 48.3109H21.9375V91.7089L2.57143 74.2678C0.883926 72.7939 0 70.665 0 68.3722V7.86075C0 3.52096 3.45536 0 7.71429 0H55.2857ZM40.9821 10.9723H21.9375V35.1278H33.2679C37.5268 35.1278 40.9821 31.6068 40.9821 27.267V10.9723Z"
                fill="white"
              ></path>
            </svg>